<svg width="195" height="50" xmlns="http://www.w3.org/2000/svg" fill="none">
 <desc>Created with Pixso.</desc>
 <defs>
  <clipPath id="clip3_1">
   <rect id="画板 1" width="780" height="200" fill="white"/>
  </clipPath>
 </defs>
 <g>
  <title>Layer 1</title>
  <g stroke="null" clip-path="url(#clip3_1)" id="svg_1">
   <path stroke="null" id="小镇做题家" d="m190.69597,20.03347l-13.31613,0l0,2.62151l-1.83197,0l0,-4.32943l7.44229,0c-0.18359,-0.47169 -0.40701,-0.91853 -0.63043,-1.32565l1.97094,-0.566c0.36747,0.566 0.71516,1.30083 0.95835,1.89166l7.34315,0l0,4.32943l-1.9362,0l0,-2.62151zm-38.02658,0.40712l0,1.6037l-0.91373,0c-0.36747,3.27676 -0.95807,5.97784 -2.01557,8.2171c0.75443,1.42468 1.74752,2.62142 3.09311,3.47527c-0.3477,0.3477 -0.89367,1.03772 -1.14195,1.50433c-1.19674,-0.87362 -2.13504,-2.03054 -2.88467,-3.31145c-0.89876,1.32074 -1.99608,2.41778 -3.39618,3.3363c-0.22342,-0.32764 -0.81402,-0.9979 -1.18149,-1.30577c1.62833,-0.95327 2.84992,-2.19436 3.72354,-3.77834c-0.6502,-1.60856 -1.07727,-3.3363 -1.36537,-5.02445c-0.26296,0.52643 -0.54598,1.01789 -0.85385,1.46473c-0.07937,-0.16382 -0.22342,-0.38724 -0.38724,-0.59089l0,7.0155l-4.40877,0l0,1.36537l-1.64838,0l0,-8.68366l2.15453,0l0,-3.59966l-2.60137,0l0,-1.70795l2.60137,0l0,-3.55986l1.78763,0l0,3.55986l2.42286,0l0,1.70795l-2.42286,0l0,3.59966l1.91134,0c-0.17879,-0.24827 -0.36238,-0.47169 -0.50643,-0.63063c1.36056,-2.05548 2.15481,-5.2281 2.60165,-8.48012l1.70798,0.30284c-0.20365,1.18166 -0.40701,2.37823 -0.71008,3.52015l4.43391,0zm-34.14402,7.78518l0,3.80291l2.23418,-1.17669c0.0644,0.52649 0.24319,1.24137 0.36747,1.64838c-3.49532,1.95117 -4.08621,2.31383 -4.43391,2.68102c-0.18359,-0.38724 -0.63043,-1.01767 -0.95327,-1.32046c0.42707,-0.28302 1.05778,-0.9335 1.05778,-1.9314l0,-3.70377l-2.6861,0l0,-1.68821l2.6861,0l0,-2.41795l-1.58878,0l0,-1.70795l5.55072,0l0,1.70795l-2.23418,0l0,2.41795l2.62142,0l0,1.68821l-2.62142,0zm-1.97602,-7.76533c-0.40221,0.71 -0.8739,1.36042 -1.34051,1.95122c-0.24347,0.30287 -0.48666,0.57097 -0.74991,0.81428c-0.14377,-0.38727 -0.61066,-1.38522 -0.91853,-1.81223c1.20154,-1.17669 2.27909,-2.92932 2.88975,-4.77627l1.66815,0.50643c-0.16382,0.53123 -0.38724,1.07738 -0.63043,1.58878l3.63909,0l0,1.72778l-4.55762,0zm14.54224,0.61071l0,8.84253l1.22132,0l0,1.60856l-7.52674,0l1.46451,0.99818c-1.11709,1.01287 -2.78524,2.07036 -4.10598,2.76547c-0.28302,-0.36747 -0.8143,-0.91853 -1.18149,-1.26114c1.24109,-0.63071 2.82987,-1.66815 3.70377,-2.50251l-3.59955,0l0,-1.60856l1.38034,0l0,-8.84253l2.72565,0c0.10422,-0.38727 0.18359,-0.77454 0.26324,-1.20154l-3.71874,0l0,-1.52422l3.98679,0c0.09914,-0.59083 0.18359,-1.18166 0.24319,-1.68809l2.01076,0.09931c-0.09914,0.51138 -0.20336,1.05752 -0.32256,1.58878l4.25003,0l0,1.52422l-4.6175,0c-0.12428,0.42701 -0.22342,0.81428 -0.32284,1.20154l4.14581,0zm2.52228,3.59958c1.68792,-1.9562 3.23208,-4.94509 4.17038,-7.97372l1.76757,0.48658c-0.46661,1.38522 -1.01767,2.74562 -1.64838,4.09113l0,13.99113l-1.72775,0l0,-10.84336c-0.50643,0.83416 -1.05749,1.58887 -1.60375,2.23907c-0.18359,-0.46661 -0.67506,-1.50427 -0.95807,-1.99082zm-31.89007,8.09288l0,-15.88289l2.05567,0l0,15.88289c0,1.26114 -0.32284,1.80712 -1.11709,2.13504c-0.8143,0.30279 -2.11527,0.36719 -4.04638,0.34233c-0.12428,-0.52621 -0.44712,-1.41988 -0.75471,-1.97094c1.38514,0.0596 2.8697,0.0596 3.29676,0.03983c0.42678,-0.02005 0.56575,-0.13925 0.56575,-0.54626zm53.93448,-15.3566l7.0751,0l0,6.46933l-7.0751,0l0,-6.46933zm8.7232,11.77683l0,-8.46024l2.23927,0c0.20365,-0.48658 0.40729,-1.13698 0.59089,-1.72781l-3.56001,0l0,-1.50439l9.24997,0l0,1.50439l-3.84302,0c-0.24319,0.61069 -0.50643,1.22137 -0.74962,1.72781l3.71874,0l0,8.37579l-1.62353,0l0,-6.97071l-4.45368,0l0,7.05516l-1.56901,0zm-7.03528,-9.17023l3.6196,0l0,-1.28094l-3.6196,0l0,1.28094zm0,2.54205l3.6196,0l0,-1.28094l-3.6196,0l0,1.28094zm-47.07771,8.61917c-0.42678,-2.398 -2.03562,-6.18137 -3.684,-9.11069l1.83226,-0.69014c1.72775,2.82507 3.3959,6.52893 3.90234,8.98653l-2.05059,0.8143zm-17.06453,-1.34051c1.70798,-2.11499 2.78553,-5.6154 3.25722,-8.29647l2.13476,0.38727c-0.67025,2.96903 -1.8122,6.64806 -3.57978,8.9071c-0.46661,-0.34741 -1.30068,-0.8143 -1.8122,-0.9979zm92.36807,-2.7457c1.46451,-0.97813 3.09311,-2.23915 4.15061,-3.25199l1.54416,1.23626c-0.8739,0.71505 -1.8718,1.42485 -2.86489,2.11516c0.8739,2.54205 2.66125,4.72144 5.08411,5.69477c-0.40701,0.32764 -0.97784,1.05749 -1.24109,1.52919c-2.50223,-1.16172 -4.2698,-3.44081 -5.3273,-6.26588c-0.26833,0.16382 -0.55134,0.32764 -0.8143,0.48666c0.65048,2.52228 0.16382,4.94514 -0.9383,5.79899c-0.65048,0.63071 -1.23629,0.80922 -2.19464,0.80922c-0.46661,0.02486 -1.07727,0 -1.68821,-0.03954c-0.03954,-0.50643 -0.20336,-1.24137 -0.50643,-1.76757c0.71008,0.0596 1.36056,0.09942 1.8074,0.09942c0.51124,0 0.8739,-0.0596 1.22132,-0.44684c0.48666,-0.40729 0.79453,-1.50461 0.71008,-2.88467c-2.31864,1.7077 -5.65014,3.31145 -8.46024,4.14553c-0.20365,-0.46661 -0.63071,-1.15663 -0.9931,-1.56393c3.21231,-0.75471 7.11464,-2.56183 9.13049,-4.3342c-0.124,-0.38244 -0.24319,-0.74991 -0.42707,-1.13715c-2.01557,1.32074 -5.06405,2.6861 -7.42251,3.43573c-0.22342,-0.42678 -0.61066,-1.07727 -0.95807,-1.48456c2.50223,-0.56603 5.85859,-1.95117 7.62616,-3.19225c-0.22342,-0.32284 -0.48666,-0.65048 -0.79453,-0.97324c-1.78735,0.97324 -3.82297,1.74772 -5.73459,2.27392c-0.17851,-0.36238 -0.67025,-1.13686 -0.99281,-1.50433c2.41778,-0.52621 5.01943,-1.41999 6.89123,-2.60165l-4.12575,0l0,-1.6285l11.50873,0l0,1.6285l-4.82115,0c-0.40701,0.36741 -0.85385,0.67025 -1.32046,0.99795c0.87362,0.8341 1.50433,1.80734 1.95117,2.82501zm-36.7259,1.09732c0.65048,-1.7478 1.01795,-3.80317 1.26114,-6.14166l-2.31864,0c-0.03954,0.16382 -0.07937,0.32767 -0.14377,0.48655c0.20336,1.83209 0.57083,3.82794 1.20126,5.65511zm-19.50207,-4.75644l0,-1.07741l-5.20839,0l0,1.07741l5.20839,0zm33.47348,8.33621c4.21049,-1.28091 4.53305,-3.69897 4.65733,-8.74334l1.56393,0c-0.13897,5.57057 -0.69031,8.49987 -5.32758,9.98443c-0.16382,-0.34741 -0.57083,-0.95807 -0.89367,-1.24109zm-38.68187,-6.2608l5.20839,0l0,-1.01789l-5.20839,0l0,1.01789zm39.14876,4.49322l-3.15271,0l0,2.70079c1.42496,0.51152 3.21231,0.61094 5.34707,0.61094c1.08235,0 6.24611,0 7.60639,-0.03983c-0.26324,0.38724 -0.52621,1.09732 -0.63043,1.56901l-6.99573,0c-4.06644,0 -6.81186,-0.42707 -8.51983,-2.88975c-0.30279,1.28091 -0.72985,2.398 -1.42496,3.29168c-0.24319,-0.24319 -0.95327,-0.7098 -1.32074,-0.89367c1.26114,-1.54387 1.60856,-3.96193 1.68821,-6.81186l1.54416,0.12428c-0.03983,0.83408 -0.09942,1.60347 -0.17879,2.35818c0.34261,0.72985 0.74962,1.30097 1.28091,1.72775l0,-5.08411l-3.94724,0l0,-1.44473l9.11072,0l0,1.44473l-3.55972,0l0,1.91162l3.15271,0l0,1.42496zm-33.94037,-3.39618l-5.20839,0l0,1.07755l5.20839,0l0,-1.07755zm11.59318,4.81606l2.74542,0l0,-4.06616l-2.74542,0l0,4.06616zm-11.59318,-2.66125l-5.20839,0l0,1.15692l5.20839,0l0,-1.15692zm40.04215,0.22342c1.17669,0.8143 2.7457,2.03562 3.53995,2.82507l-1.12189,1.162c-0.74991,-0.8143 -2.27401,-2.09522 -3.49532,-2.98889l1.07727,-0.99818zm-38.45845,6.30571c-0.76968,-0.73494 -2.35846,-1.85203 -3.61932,-2.60674l1.20126,-1.11709c1.24137,0.67025 2.86489,1.72775 3.6792,2.46269l-1.26114,1.26114z" fill="#143D8FFF"/>
   <circle stroke="null" id="椭圆 1" cx="22.18378" cy="25.18378" r="21.18378" fill="#143D8F"/>
   <path stroke="null" id="P" d="m15.74843,42.97816l-4.51898,0l0,-35.60584l10.15274,0c8.01792,0 13.3551,2.66865 13.3551,10.43742c0,7.53165 -5.33718,11.03037 -13.11785,11.03037l-5.87101,0l0,14.13806zm0,-31.96461l0,14.18548l5.28973,0c6.26249,0 9.22766,-2.2892 9.22766,-7.3893c0,-5.14755 -3.15497,-6.79618 -9.41746,-6.79618l-5.09993,0z" fill="#FFFFFFFF"/>
   <path stroke="null" id="R" d="m63.76811,27.38125l9.13275,15.59691l-5.10021,0l-8.64637,-15.11053l-6.40485,0l0,15.11053l-4.51892,0l0,-35.60584l11.17261,0c7.23525,0 12.43008,2.57377 12.43008,9.99858c0,5.53894 -3.20242,8.84807 -8.06509,10.01035zm-5.05276,-16.36769l-5.96592,0l0,13.21283l5.96592,0c5.5863,0 8.64637,-2.22983 8.64637,-6.8555c0,-4.7087 -3.06007,-6.35734 -8.64637,-6.35734z" fill="#143D8FFF"/>
  </g>
 </g>
</svg>