<svg width="74" height="50" xmlns="http://www.w3.org/2000/svg" fill="none">
 <desc>Created with Pixso.</desc>
 <defs>
  <clipPath id="clip3_1">
   <rect fill="white" height="200" width="780" id="画板 1"/>
  </clipPath>
 </defs>
 <g>
  <title>background</title>
  <rect fill="none" id="canvas_background" height="52" width="76" y="-1" x="-1"/>
 </g>
 <g>
  <title>Layer 1</title>
  <g stroke="null" id="svg_1" clip-path="url(#clip3_1)">
   <circle stroke="null" fill="#143D8F" r="21.18378" cy="25.18378" cx="22.18378" id="椭圆 1"/>
   <path stroke="null" fill="#FFFFFFFF" d="m15.74843,42.97816l-4.51898,0l0,-35.60584l10.15274,0c8.01792,0 13.3551,2.66865 13.3551,10.43742c0,7.53165 -5.33718,11.03037 -13.11785,11.03037l-5.87101,0l0,14.13806l0,-0.00001zm0,-31.96461l0,14.18548l5.28973,0c6.26249,0 9.22766,-2.2892 9.22766,-7.3893c0,-5.14755 -3.15497,-6.79618 -9.41746,-6.79618l-5.09993,0z" id="P"/>
   <path stroke="null" fill="#143D8FFF" d="m63.76811,27.38125l9.13275,15.59691l-5.10021,0l-8.64637,-15.11053l-6.40485,0l0,15.11053l-4.51892,0l0,-35.60584l11.17261,0c7.23525,0 12.43008,2.57377 12.43008,9.99858c0,5.53894 -3.20242,8.84807 -8.06509,10.01035zm-5.05276,-16.36769l-5.96592,0l0,13.21283l5.96592,0c5.5863,0 8.64637,-2.22983 8.64637,-6.8555c0,-4.7087 -3.06007,-6.35734 -8.64637,-6.35734l0,0.00001z" id="R"/>
  </g>
 </g>
</svg>